<svg xmlns="http://www.w3.org/2000/svg" version="1.1" viewBox="0 0 240 35"> <defs> <style> .cls-1 { fill: #002d77; } .cls-1, .cls-2, .cls-3 { stroke-width: 0px; } .cls-2 { fill: #eca110; } .cls-3 { fill: #1a1311; } </style> </defs> <path id="_p_3100" data-name=" p 3100" class="cls-3" d="M221.7,28.9v2.5h-5.8V0h5.8v11.3h.2c.2-.1.4-.4.6-.6,2.7-2.6,7.4-3.2,11-1.4,4.2,2.1,6.7,6.5,6.5,11.2-.2,4.1-1.8,7.5-5.2,9.9-3.7,2.5-9.6,2.5-13-1.5M221.7,20.2c0,3.4,2.7,6.2,6.2,6.3,3.4,0,6.2-2.7,6.3-6.2v-.2c0-3.4-2.7-6.2-6.2-6.3-3.4,0-6.2,2.7-6.3,6.2v.2"/> <path id="_p_3101" data-name=" p 3101" class="cls-3" d="M211.7,31.5h-5.7v-2.4h-.3c-2.9,3.4-8.4,3.9-12.3,1.6-3.8-2.2-6-6.4-5.7-10.7.1-4.7,2.1-8.3,6.4-10.6,3.5-1.8,8.7-1.4,11.5,1.9,0,0,.2.1.3.2v-2.5h5.8v22.4h0ZM199.7,26.6c3.3.1,6.1-2.5,6.2-5.8v-.5c0-3.4-2.8-6.2-6.3-6.2s-6.2,2.8-6.2,6.3c-.2,3.3,2.4,6.2,5.7,6.3h.5"/> <path id="_p_3102" data-name=" p 3102" class="cls-3" d="M63.8,22.6c.9,4.7,8.4,5.7,11.4,2l4.6,2.7c-1.2,1.8-2.9,3.2-5,3.9-4,1.6-8.5,1.2-12.1-1.2-3.4-2.2-4.9-5.6-5-9.6-.3-5.6,3.5-10.6,8.9-11.8,8.5-1.9,14.8,4.5,14.3,12.3,0,1.6,0,1.6-1.7,1.6h-15.4ZM75,18.1c-.4-2.8-2.9-4.8-5.8-4.5-3.1.2-5.6,2.3-5.4,4.5h11.2Z"/> <path id="_p_3103" data-name=" p 3103" class="cls-3" d="M121.6,22.6c1.1,4.7,8.4,5.6,11.4,2l4.6,2.7c-1.5,2.2-3.8,3.8-6.4,4.4-3.6,1-7.4.4-10.6-1.6-3.5-2.2-5-5.6-5.1-9.7-.3-5.7,3.6-10.8,9.3-11.8,8.7-1.6,14.4,5,14,12.5q-.1,1.6-1.7,1.6h-15.5ZM132.9,18.1c-.4-2.8-2.9-4.7-5.7-4.5-3.1.2-5.5,2.2-5.5,4.5h11.3-.1Z"/> <path id="_p_3104" data-name=" p 3104" class="cls-3" d="M142.9,9h5.7v2.3c.1,0,.2-.1.3-.2,2.4-2.7,5.4-3.2,8.7-2.4s5.2,3,5.9,6.3c.2.9.3,1.8.3,2.8v13.3c0,4.5,0,.3,0,.5h-5.8v-12.7c0-.8-.1-1.6-.4-2.4-.7-1.9-2.4-2.7-4.6-2.5-2,0-3.8,1.5-4.1,3.5-.2.8-.2,1.6-.2,2.4v11.8h-5.8V9h0Z"/> <path id="_p_3105" data-name=" p 3105" class="cls-3" d="M54.8,13.1l-4.9,2.7c-.2-.2-.3-.4-.4-.6-1-1.4-2.9-2-4.5-1.4-.7.2-1.2.8-1.2,1.5s.4,1.3,1,1.5c1.1.4,2.2.7,3.3,1.1,1.6.5,3.1,1.1,4.6,1.9,3.7,2.2,3.3,7.9.3,10.3-1.5,1.2-3.3,1.8-5.2,2-3.2.3-6.2-.1-8.7-2.3-.9-.9-1.7-1.8-2.4-2.9l5.1-2.9c1.6,2.5,3.4,3.4,5.9,2.7.4,0,.7-.3,1-.5.7-.4.9-1.3.4-2,0-.2-.3-.3-.4-.4-.7-.4-1.5-.7-2.3-1-1.6-.6-3.3-1-4.9-1.7-2.3-.8-3.8-3-3.8-5.4,0-2.5,1.1-4.8,3.3-6,3.9-2.3,10.6-1.9,13.6,3,0,.1,0,.2.2.4"/> <path id="_p_3106" data-name=" p 3106" class="cls-3" d="M189.2,31.4h-20V0h6.1v25.5h9.7c.9,1.3,2.8,4.4,4.1,5.9"/> <path class="cls-3" d="M108.2,14.6h5v-5.6h-3l-2.1,2.1v-2.1h0V2.7l-5.8,1.8v4.5h-8.2l-2.1,2.1v-2.1h0V2.7l-5.8,1.8v4.6h-3.8v5.6h3.9v9.9c0,.8,0,1.6.3,2.5.4,2.1,2,3.8,4.1,4.3,2.1.6,4.3-.3,6.5-.6v-4.4h-2.5c-1.9,0-2.5-.7-2.5-2.7v-8.3c0-2.8,0-.4,0-.7h10.3v9.2c0,1.1,0,2.1.3,3.1.3,1.8,1.5,3.4,3.3,4,2.4.9,4.8,0,7.2-.3v-4.4h-2.5c-1.9,0-2.5-.7-2.5-2.6v-8.3c0-2.8,0-.5,0-.8h-.1Z"/> <g> <path id="_p_3111" data-name=" p 3111" class="cls-1" d="M7.7,19l4.6-4.6c2.1-2.1,2.1-5.5,0-7.6L1.3,17.8c-1.7,1.7-1.7,4.5,0,6.2l11,11c2.1-2.1,2.1-5.5,0-7.6h0l-4.6-4.6c-1.1-1.1-1.1-2.8,0-3.9h0"/> <path id="_p_3112" data-name=" p 3112" class="cls-2" d="M22.7,22.9l-4.6,4.6c-2.1,2.1-2.1,5.5,0,7.6l11-11c1.7-1.7,1.7-4.5,0-6.2l-11-11c-2.1,2.1-2.1,5.5,0,7.6h0l4.6,4.6c1.1,1.1,1.1,2.8,0,3.9h0"/> <path id="_p_3113" data-name=" p 3113" class="cls-1" d="M11.6,20.9c0-2,1.6-3.6,3.6-3.6s3.6,1.6,3.6,3.6-1.6,3.6-3.6,3.6h0c-2,0-3.6-1.6-3.6-3.6"/> </g> </svg>
